<svg id="instagram_1_" data-name="instagram (1)" xmlns="http://www.w3.org/2000/svg" width="43.952" height="43.952" viewBox="0 0 43.952 43.952">
  <path id="Path_19" data-name="Path 19" d="M215.413,211.206A4.206,4.206,0,1,1,211.206,207,4.206,4.206,0,0,1,215.413,211.206Zm0,0" transform="translate(-189.23 -189.23)" fill="#f8f8f8"/>
  <path id="Path_20" data-name="Path 20" d="M155.667,138.391A4.179,4.179,0,0,0,153.272,136a6.982,6.982,0,0,0-2.343-.434c-1.331-.061-1.73-.074-5.1-.074s-3.769.013-5.1.073a6.986,6.986,0,0,0-2.343.435,4.181,4.181,0,0,0-2.4,2.395,6.984,6.984,0,0,0-.434,2.343c-.061,1.331-.074,1.73-.074,5.1s.013,3.768.074,5.1a6.982,6.982,0,0,0,.434,2.343,4.179,4.179,0,0,0,2.395,2.395,6.974,6.974,0,0,0,2.343.435c1.331.061,1.729.073,5.1.073s3.769-.013,5.1-.073a6.974,6.974,0,0,0,2.343-.435,4.179,4.179,0,0,0,2.395-2.395,6.988,6.988,0,0,0,.435-2.343c.061-1.331.073-1.73.073-5.1s-.013-3.769-.073-5.1A6.973,6.973,0,0,0,155.667,138.391Zm-9.837,13.922a6.48,6.48,0,1,1,6.48-6.48A6.48,6.48,0,0,1,145.83,152.313Zm6.736-11.7a1.514,1.514,0,1,1,1.514-1.514A1.514,1.514,0,0,1,152.566,140.612Zm0,0" transform="translate(-123.854 -123.857)" fill="#f8f8f8"/>
  <path id="Path_21" data-name="Path 21" d="M21.976,0A21.976,21.976,0,1,0,43.952,21.976,21.979,21.979,0,0,0,21.976,0ZM34.519,27.179a9.258,9.258,0,0,1-.586,3.063,6.452,6.452,0,0,1-3.691,3.691,9.265,9.265,0,0,1-3.063.586c-1.346.061-1.776.076-5.2.076s-3.857-.015-5.2-.076a9.265,9.265,0,0,1-3.063-.586,6.452,6.452,0,0,1-3.691-3.691,9.256,9.256,0,0,1-.586-3.063c-.062-1.346-.076-1.776-.076-5.2s.014-3.857.076-5.2a9.259,9.259,0,0,1,.586-3.063A6.457,6.457,0,0,1,13.71,10.02a9.267,9.267,0,0,1,3.063-.586c1.346-.061,1.776-.076,5.2-.076s3.857.015,5.2.076a9.269,9.269,0,0,1,3.063.586,6.454,6.454,0,0,1,3.691,3.691,9.257,9.257,0,0,1,.587,3.063c.061,1.346.076,1.776.076,5.2S34.581,25.833,34.519,27.179Zm0,0" fill="#f8f8f8"/>
</svg>
